# xmcd CD database file
#
# Track frame offsets:
#	150
#	13272
#	23387
#	31538
#	44583
#	55291
#	67514
#	78863
#	89698
#	102292
#	111933
#	118151
#	127953
#	139851
#	163457
#	181465
#	200943
#	214674
#	228964
#	237064
#	257855
#	267145
#	288067
#	299186
#	310241
#	317444
#	325570
#	332222
#	337822
#	344471
#
# Disc length: 4729 seconds
#
# Revision: 0
# Processed by: cddbd v1.5.1PL2 Copyright (c) Steve Scherf et al.
# Submitted via: CDex 1.51
#
DISCID=b512771e
DTITLE=Bob Hickey and Friends - Bob Hickey and Friends
DYEAR=2006
DGENRE=Country
TTITLE0=Anniversary Song 1 (Bill, Bob,Ray,Ed - Anniversary Song 1 (Bill, Bob,Ray,Ed)
TTITLE1=Anniversary Song 2 (B,B,R,E - Anniversary Song 2 (B,B,R,E)
TTITLE2=This Train (Bob,Chick,Red - This Train (Bob,Chick,Red)
TTITLE3=Honky Tonk Sweetheart (B,C,R - Honky Tonk Sweetheart (B,C,R)
TTITLE4=Blues - (Bob,Chick,Red)
TTITLE5=Chop Sticks (Bob,Chick,Red - Chop Sticks (Bob,Chick,Red)
TTITLE6=Any Time (B,C,R - Any Time (B,C,R)
TTITLE7=Invitation to the Blues (B,C,R - Invitation to the Blues (B,C,R)
TTITLE8=Just a Closer Walk with Thee - 1
TTITLE9=Caravan - Caravan
TTITLE10=Polka - 1
TTITLE11=Chop - Sticks
TTITLE12=N,S,E,W - Polka_1
TTITLE13=Johnny B Goode - 1
TTITLE14=Unknown - Jam_1
TTITLE15=Orange Blossom Special - 1
TTITLE16=Don - t Worry About Me - 1
TTITLE17=Roll in my Sweet Baby - s Arms_2
TTITLE18=Alabama Jubalee_2 - Split 2
TTITLE19=Fulsom Prison Blues - 1
TTITLE20=Steel Guitar Rag - Steel Guitar Rag
TTITLE21=Guitar - Blues_1
TTITLE22=Sleep - Walkin_1
TTITLE23=Steel - Guitar
TTITLE24=Blue - Hawaii_1
TTITLE25=Dooling - Banjos_1
TTITLE26=Banjo - Rag_1
TTITLE27=Guitar - 1_1
TTITLE28=Guitar - 3_1
TTITLE29=Guitar - 2_1
EXTD=YEAR: 2006
EXTT0=
EXTT1=
EXTT2=
EXTT3=
EXTT4=
EXTT5=
EXTT6=
EXTT7=
EXTT8=
EXTT9=
EXTT10=
EXTT11=
EXTT12=
EXTT13=
EXTT14=
EXTT15=
EXTT16=
EXTT17=
EXTT18=
EXTT19=
EXTT20=
EXTT21=
EXTT22=
EXTT23=
EXTT24=
EXTT25=
EXTT26=
EXTT27=
EXTT28=
EXTT29=
PLAYORDER=
